<svg xmlns="http://www.w3.org/2000/svg" xmlns:xlink="http://www.w3.org/1999/xlink" viewBox="0 0 109.02 91.71"><defs><style>.cls-1{fill:url(#linear-gradient);}.cls-2{fill:url(#linear-gradient-2);}.cls-3{fill:url(#linear-gradient-3);}</style><linearGradient id="linear-gradient" x1="65.77" y1="-0.49" x2="65.77" y2="92.83" gradientUnits="userSpaceOnUse"><stop offset="0" stop-color="#272931"/><stop offset="1" stop-color="#007173"/></linearGradient><linearGradient id="linear-gradient-2" x1="93.73" y1="-0.49" x2="93.73" y2="92.83" xlink:href="#linear-gradient"/><linearGradient id="linear-gradient-3" x1="28.83" y1="-0.49" x2="28.83" y2="92.83" xlink:href="#linear-gradient"/></defs><g id="Layer_2" data-name="Layer 2"><g id="Layer_1-2" data-name="Layer 1"><path class="cls-1" d="M91.34,61.38,79.85,90a2.75,2.75,0,0,1-5.12,0L40.19,3.87A2.81,2.81,0,0,1,42.75,0h23A2.75,2.75,0,0,1,68.3,1.75l23,57.5A2.9,2.9,0,0,1,91.34,61.38Z"/><circle class="cls-2" cx="93.73" cy="15.28" r="15.28"/><path class="cls-3" d="M57.45,59.25l-23-57.5A2.75,2.75,0,0,0,31.85,0h-23A2.8,2.8,0,0,0,6.31,3.87L37.92,82.68a4.36,4.36,0,0,1-4.15,5.81H32.46A3.79,3.79,0,0,1,29.06,83a15.15,15.15,0,0,0,1.51-6.46A15.29,15.29,0,1,0,15.28,91.71l1.62,0-.9,0H43.27A2.73,2.73,0,0,0,46,90L57.45,61.38A2.9,2.9,0,0,0,57.45,59.25Z"/></g></g></svg>